<svg width="30" height="30" viewBox="0 0 30 30" fill="none" xmlns="http://www.w3.org/2000/svg">
<g id="Frame">
<path id="Vector" d="M13.75 15C13.75 14.3096 14.3096 13.75 15 13.75C15.6904 13.75 16.25 14.3096 16.25 15C16.25 15.6904 15.6904 16.25 15 16.25C14.3096 16.25 13.75 15.6904 13.75 15Z" stroke="#1E1E1E" stroke-width="2" stroke-linecap="round" stroke-linejoin="round"/>
<path id="Vector_2" d="M13.75 6.25C13.75 5.55964 14.3096 5 15 5C15.6904 5 16.25 5.55964 16.25 6.25C16.25 6.94036 15.6904 7.5 15 7.5C14.3096 7.5 13.75 6.94036 13.75 6.25Z" stroke="#1E1E1E" stroke-width="2" stroke-linecap="round" stroke-linejoin="round"/>
<path id="Vector_3" d="M13.75 23.75C13.75 23.0596 14.3096 22.5 15 22.5C15.6904 22.5 16.25 23.0596 16.25 23.75C16.25 24.4404 15.6904 25 15 25C14.3096 25 13.75 24.4404 13.75 23.75Z" stroke="#1E1E1E" stroke-width="2" stroke-linecap="round" stroke-linejoin="round"/>
</g>
</svg>
