<svg width="27" height="26" viewBox="0 0 27 26" fill="none" xmlns="http://www.w3.org/2000/svg">
<g id="Frame 310">
<path id="Vector" d="M9.5 25C10.3284 25 11 24.3284 11 23.5C11 22.6716 10.3284 22 9.5 22C8.67157 22 8 22.6716 8 23.5C8 24.3284 8.67157 25 9.5 25Z" stroke="#1E1E1E" stroke-width="1.5" stroke-linecap="round" stroke-linejoin="round"/>
<path id="Vector_2" d="M21.5 25C22.3284 25 23 24.3284 23 23.5C23 22.6716 22.3284 22 21.5 22C20.6716 22 20 22.6716 20 23.5C20 24.3284 20.6716 25 21.5 25Z" stroke="#1E1E1E" stroke-width="1.5" stroke-linecap="round" stroke-linejoin="round"/>
<path id="Vector (Stroke)" fill-rule="evenodd" clip-rule="evenodd" d="M1 1.92306C1 1.41327 1.40456 1 1.90361 1H6.12048C6.55117 1 6.922 1.3105 7.00652 1.7419L7.91616 6.3845H25.0964C25.3657 6.3845 25.6209 6.5072 25.7926 6.71916C25.9643 6.93111 26.0344 7.21024 25.984 7.48047L24.296 16.5226C24.1582 17.2309 23.781 17.8671 23.2304 18.3199C22.6821 18.7707 21.9968 19.0111 21.2933 18.9996H11.0621C10.3586 19.0111 9.67328 18.7707 9.12506 18.3199C8.5746 17.8673 8.19747 17.2313 8.05963 16.5233L6.29769 7.53081C6.29111 7.50372 6.28569 7.47616 6.2815 7.44819L5.3798 2.84611H1.90361C1.40456 2.84611 1 2.43285 1 1.92306Z" stroke="#1E1E1E" stroke-width="1.5" stroke-linecap="round" stroke-linejoin="round"/>
</g>
</svg>
