<svg width="29" height="29" viewBox="0 0 29 29" fill="none" xmlns="http://www.w3.org/2000/svg">
<g id="Frame 337">
<circle id="Ellipse 16" cx="14.5" cy="14.5" r="14.5" fill="#25D366"/>
<path id="Vector 9" d="M14.5 12.7273C12.875 13.5455 11.418 17.9091 14.5 17.9091C16.125 17.9091 17.9667 15.5636 14.5 12.7273ZM14.5 12.7273C14.0081 12.287 12.9207 11.5802 11.418 11.0909M14.5 12.7273C15.4251 11.9199 16.3702 11.4113 17.2624 11.0909M11.418 11.0909C10.4385 10.772 9.28251 10.5455 8 10.5455V19C8 20.6364 9.08335 22 10.7083 22H18.5625C19.375 22 21 21.1818 21 19V10.5455C20.1469 10.5455 18.7813 10.5455 17.2624 11.0909M11.418 11.0909C11.418 5.63637 17.3057 5.63636 17.2624 11.0909" stroke="white" stroke-width="2"/>
</g>
</svg>
